<?xml version="1.0" encoding="UTF-8"?>
<!DOCTYPE svg PUBLIC "-//W3C//DTD SVG 1.1//EN" "http://www.w3.org/Graphics/SVG/1.1/DTD/svg11.dtd">
<svg xmlns="http://www.w3.org/2000/svg" version="1.1" width="512px" height="512px" style="shape-rendering:geometricPrecision; text-rendering:geometricPrecision; image-rendering:optimizeQuality; fill-rule:evenodd; clip-rule:evenodd" xmlns:xlink="http://www.w3.org/1999/xlink">
<g><path style="opacity:0.981" fill="#9f4ec5" d="M 208.5,28.5 C 210.5,28.5 212.5,28.5 214.5,28.5C 223.487,65.4479 232.32,102.448 241,139.5C 246.912,165.642 251.746,191.975 255.5,218.5C 258.7,194.999 262.867,171.666 268,148.5C 277.189,108.412 286.689,68.4116 296.5,28.5C 316.279,31.11 334.946,37.11 352.5,46.5C 328.121,104.473 303.455,162.307 278.5,220C 280.631,219.602 282.631,218.602 284.5,217C 330.313,176.93 376.313,137.097 422.5,97.5C 436.261,111.014 447.594,126.348 456.5,143.5C 402.702,176.57 348.702,209.403 294.5,242C 356.015,237.36 417.515,232.193 479,226.5C 480.764,226.544 482.431,226.878 484,227.5C 485.98,245.835 485.98,264.168 484,282.5C 482.647,283.704 480.981,284.371 479,284.5C 417.521,278.729 356.021,273.562 294.5,269C 348.702,301.597 402.702,334.43 456.5,367.5C 447.594,384.652 436.261,399.986 422.5,413.5C 374.224,372.727 326.391,331.394 279,289.5C 302.883,347.952 327.383,406.286 352.5,464.5C 334.946,473.89 316.279,479.89 296.5,482.5C 286.18,439.552 276.013,396.552 266,353.5C 261.928,333.482 258.262,313.482 255,293.5C 252.236,314.986 248.569,336.32 244,357.5C 234.32,399.219 224.487,440.885 214.5,482.5C 194.721,479.89 176.054,473.89 158.5,464.5C 180.903,411.459 203.403,358.459 226,305.5C 228.102,300.526 229.769,295.526 231,290.5C 183.78,331.855 136.28,372.855 88.5,413.5C 74.739,399.986 63.4057,384.652 54.5,367.5C 54.9767,366.522 55.6433,365.689 56.5,365C 109.833,333 163.167,301 216.5,269C 154.814,273.592 93.1476,278.759 31.5,284.5C 29.9002,284.449 28.4002,284.116 27,283.5C 25,264.833 25,246.167 27,227.5C 28.4002,226.884 29.9002,226.551 31.5,226.5C 93.1465,232.241 154.813,237.407 216.5,242C 163.167,210 109.833,178 56.5,146C 55.6433,145.311 54.9767,144.478 54.5,143.5C 63.4057,126.348 74.739,111.014 88.5,97.5C 136.28,138.145 183.78,179.145 231,220.5C 207.646,162.467 183.479,104.634 158.5,47C 162.368,43.9227 166.702,41.5893 171.5,40C 183.788,35.6235 196.122,31.7902 208.5,28.5 Z"/></g>
</svg>
